<svg xmlns="http://www.w3.org/2000/svg"  viewBox="0 0 16 16" width="512px" height="512px"><path d="M 4 1 L 8 4.5 L 12 1 Z M 14.441406 2.34375 L 13.5 3 C 13.535156 3 13.5625 3.011719 13.59375 3.019531 L 8 6.890625 L 2.40625 3.019531 C 2.4375 3.011719 2.464844 3 2.5 3 L 1.546875 2.351563 C 1.214844 2.628906 1 3.035156 1 3.5 L 1 11.5 C 1 12.328125 1.671875 13 2.5 13 L 13.5 13 C 14.328125 13 15 12.328125 15 11.5 L 15 3.5 C 15 3.03125 14.78125 2.617188 14.441406 2.34375 Z M 3 5.773438 L 8 9.234375 L 13 5.773438 L 13 12 L 3 12 Z" fill="var(--contatos)"/></svg>